<mxfile host="65bd71144e">
    <diagram name="ページ1" id="XeylNEJbXyTpYXenvhXC">
        <mxGraphModel dx="1822" dy="755" grid="0" gridSize="10" guides="0" tooltips="1" connect="1" arrows="0" fold="1" page="1" pageScale="1" pageWidth="827" pageHeight="1169" background="#ffffff" math="0" shadow="0">
            <root>
                <mxCell id="0"/>
                <mxCell id="1" parent="0"/>
                <mxCell id="6" value="AWS Cloud" style="sketch=0;outlineConnect=0;html=1;whiteSpace=wrap;fontSize=12;fontStyle=0;shape=mxgraph.aws4.group;grIcon=mxgraph.aws4.group_aws_cloud;verticalAlign=top;align=left;spacingLeft=30;dashed=0;fillColor=none;" parent="1" vertex="1">
                    <mxGeometry width="690" height="550" as="geometry"/>
                </mxCell>
                <mxCell id="7" value="VPC" style="points=[[0,0],[0.25,0],[0.5,0],[0.75,0],[1,0],[1,0.25],[1,0.5],[1,0.75],[1,1],[0.75,1],[0.5,1],[0.25,1],[0,1],[0,0.75],[0,0.5],[0,0.25]];outlineConnect=0;gradientColor=none;html=1;whiteSpace=wrap;fontSize=12;fontStyle=0;container=1;pointerEvents=0;collapsible=0;recursiveResize=0;shape=mxgraph.aws4.group;grIcon=mxgraph.aws4.group_vpc;strokeColor=#248814;fillColor=none;verticalAlign=top;align=left;spacingLeft=30;fontColor=#AAB7B8;dashed=0;" parent="1" vertex="1">
                    <mxGeometry x="40" y="40" width="620" height="490" as="geometry"/>
                </mxCell>
                <mxCell id="8" value="Private subnet" style="points=[[0,0],[0.25,0],[0.5,0],[0.75,0],[1,0],[1,0.25],[1,0.5],[1,0.75],[1,1],[0.75,1],[0.5,1],[0.25,1],[0,1],[0,0.75],[0,0.5],[0,0.25]];outlineConnect=0;gradientColor=none;html=1;whiteSpace=wrap;fontSize=12;fontStyle=0;container=1;pointerEvents=0;collapsible=0;recursiveResize=0;shape=mxgraph.aws4.group;grIcon=mxgraph.aws4.group_security_group;grStroke=0;strokeColor=#147EBA;fillColor=#E6F2F8;verticalAlign=top;align=left;spacingLeft=30;fontColor=#147EBA;dashed=0;" parent="7" vertex="1">
                    <mxGeometry x="31" y="40" width="530" height="430" as="geometry"/>
                </mxCell>
                <mxCell id="WwlxKhp9ZZO1Id2gayt7-15" value="" style="rounded=0;whiteSpace=wrap;html=1;fillColor=none;strokeColor=#000000;fontColor=#000000;" parent="8" vertex="1">
                    <mxGeometry x="28" y="34" width="350" height="370" as="geometry"/>
                </mxCell>
                <mxCell id="WwlxKhp9ZZO1Id2gayt7-16" value="Indy Nodes" style="text;html=1;align=center;verticalAlign=middle;resizable=0;points=[];autosize=1;strokeColor=none;fillColor=none;fontColor=#000000;" parent="8" vertex="1">
                    <mxGeometry x="28" y="34" width="80" height="30" as="geometry"/>
                </mxCell>
                <mxCell id="gnrHQUhq9rvM71JO_lEj-1" value="" style="shape=image;verticalLabelPosition=bottom;labelBackgroundColor=default;verticalAlign=top;aspect=fixed;imageAspect=0;image=data:image/svg+xml,PHN2ZyB4bWxuczp4bGluaz0iaHR0cDovL3d3dy53My5vcmcvMTk5OS94bGluayIgeG1sbnM9Imh0dHA6Ly93d3cudzMub3JnLzIwMDAvc3ZnIiB2ZXJzaW9uPSIxLjEiIHZpZXdCb3g9IjAgMCA4MCA4MCIgaGVpZ2h0PSI4MHB4IiB3aWR0aD0iODBweCI+JiN4YTsgICAgPHRpdGxlPkljb24tQXJjaGl0ZWN0dXJlLzY0L0FyY2hfQW1hem9uLUVDMl82NDwvdGl0bGU+JiN4YTsgICAgPGcgZmlsbC1ydWxlPSJldmVub2RkIiBmaWxsPSJub25lIiBzdHJva2Utd2lkdGg9IjEiIHN0cm9rZT0ibm9uZSIgaWQ9Ikljb24tQXJjaGl0ZWN0dXJlLzY0L0FyY2hfQW1hem9uLUVDMl82NCI+JiN4YTsgICAgICAgIDxnIGZpbGw9IiNFRDcxMDAiIGlkPSJJY29uLUFyY2hpdGVjdHVyZS1CRy82NC9Db21wdXRlIj4mI3hhOyAgICAgICAgICAgIDxyZWN0IGhlaWdodD0iODAiIHdpZHRoPSI4MCIgeT0iMCIgeD0iMCIgaWQ9IlJlY3RhbmdsZSIvPiYjeGE7ICAgICAgICA8L2c+JiN4YTsgICAgICAgIDxwYXRoIGZpbGw9IiNGRkZGRkYiIGlkPSJBbWF6b24tRUMyX0ljb25fNjRfU3F1aWQiIGQ9Ik0yNyw1MyBMNTIsNTMgTDUyLDI4IEwyNywyOCBMMjcsNTMgWiBNNTQsMjggTDU4LDI4IEw1OCwzMCBMNTQsMzAgTDU0LDM0IEw1OCwzNCBMNTgsMzYgTDU0LDM2IEw1NCwzOSBMNTgsMzkgTDU4LDQxIEw1NCw0MSBMNTQsNDUgTDU4LDQ1IEw1OCw0NyBMNTQsNDcgTDU0LDUxIEw1OCw1MSBMNTgsNTMgTDU0LDUzIEw1NCw1My4xMzYgQzU0LDU0LjE2NCA1My4xNjQsNTUgNTIuMTM2LDU1IEw1Miw1NSBMNTIsNTkgTDUwLDU5IEw1MCw1NSBMNDYsNTUgTDQ2LDU5IEw0NCw1OSBMNDQsNTUgTDQxLDU1IEw0MSw1OSBMMzksNTkgTDM5LDU1IEwzNSw1NSBMMzUsNTkgTDMzLDU5IEwzMyw1NSBMMjksNTUgTDI5LDU5IEwyNyw1OSBMMjcsNTUgTDI2Ljg2NCw1NSBDMjUuODM2LDU1IDI1LDU0LjE2NCAyNSw1My4xMzYgTDI1LDUzIEwyMiw1MyBMMjIsNTEgTDI1LDUxIEwyNSw0NyBMMjIsNDcgTDIyLDQ1IEwyNSw0NSBMMjUsNDEgTDIyLDQxIEwyMiwzOSBMMjUsMzkgTDI1LDM2IEwyMiwzNiBMMjIsMzQgTDI1LDM0IEwyNSwzMCBMMjIsMzAgTDIyLDI4IEwyNSwyOCBMMjUsMjcuODY0IEMyNSwyNi44MzYgMjUuODM2LDI2IDI2Ljg2NCwyNiBMMjcsMjYgTDI3LDIyIEwyOSwyMiBMMjksMjYgTDMzLDI2IEwzMywyMiBMMzUsMjIgTDM1LDI2IEwzOSwyNiBMMzksMjIgTDQxLDIyIEw0MSwyNiBMNDQsMjYgTDQ0LDIyIEw0NiwyMiBMNDYsMjYgTDUwLDI2IEw1MCwyMiBMNTIsMjIgTDUyLDI2IEw1Mi4xMzYsMjYgQzUzLjE2NCwyNiA1NCwyNi44MzYgNTQsMjcuODY0IEw1NCwyOCBaIE00MSw2NS44NzYgQzQxLDY1Ljk0NCA0MC45NDQsNjYgNDAuODc2LDY2IEwxNC4xMjQsNjYgQzE0LjA1Niw2NiAxNCw2NS45NDQgMTQsNjUuODc2IEwxNCwzOS4xMjQgQzE0LDM5LjA1NiAxNC4wNTYsMzkgMTQuMTI0LDM5IEwyMCwzOSBMMjAsMzcgTDE0LjEyNCwzNyBDMTIuOTUzLDM3IDEyLDM3Ljk1MyAxMiwzOS4xMjQgTDEyLDY1Ljg3NiBDMTIsNjcuMDQ3IDEyLjk1Myw2OCAxNC4xMjQsNjggTDQwLjg3Niw2OCBDNDIuMDQ3LDY4IDQzLDY3LjA0NyA0Myw2NS44NzYgTDQzLDYxIEw0MSw2MSBMNDEsNjUuODc2IFogTTY4LDE0LjEyNCBMNjgsNDAuODc2IEM2OCw0Mi4wNDcgNjcuMDQ3LDQzIDY1Ljg3Niw0MyBMNjAsNDMgTDYwLDQxIEw2NS44NzYsNDEgQzY1Ljk0NCw0MSA2Niw0MC45NDQgNjYsNDAuODc2IEw2NiwxNC4xMjQgQzY2LDE0LjA1NiA2NS45NDQsMTQgNjUuODc2LDE0IEwzOS4xMjQsMTQgQzM5LjA1NiwxNCAzOSwxNC4wNTYgMzksMTQuMTI0IEwzOSwyMCBMMzcsMjAgTDM3LDE0LjEyNCBDMzcsMTIuOTUzIDM3Ljk1MywxMiAzOS4xMjQsMTIgTDY1Ljg3NiwxMiBDNjcuMDQ3LDEyIDY4LDEyLjk1MyA2OCwxNC4xMjQgTDY4LDE0LjEyNCBaIi8+JiN4YTsgICAgPC9nPiYjeGE7PC9zdmc+;strokeColor=#000000;fontColor=#000000;" parent="8" vertex="1">
                    <mxGeometry x="59" y="76" width="80" height="80" as="geometry"/>
                </mxCell>
                <mxCell id="gnrHQUhq9rvM71JO_lEj-2" value="" style="shape=image;verticalLabelPosition=bottom;labelBackgroundColor=default;verticalAlign=top;aspect=fixed;imageAspect=0;image=data:image/svg+xml,PHN2ZyB4bWxuczp4bGluaz0iaHR0cDovL3d3dy53My5vcmcvMTk5OS94bGluayIgeG1sbnM9Imh0dHA6Ly93d3cudzMub3JnLzIwMDAvc3ZnIiB2ZXJzaW9uPSIxLjEiIHZpZXdCb3g9IjAgMCA4MCA4MCIgaGVpZ2h0PSI4MHB4IiB3aWR0aD0iODBweCI+JiN4YTsgICAgPHRpdGxlPkljb24tQXJjaGl0ZWN0dXJlLzY0L0FyY2hfQW1hem9uLUVDMl82NDwvdGl0bGU+JiN4YTsgICAgPGcgZmlsbC1ydWxlPSJldmVub2RkIiBmaWxsPSJub25lIiBzdHJva2Utd2lkdGg9IjEiIHN0cm9rZT0ibm9uZSIgaWQ9Ikljb24tQXJjaGl0ZWN0dXJlLzY0L0FyY2hfQW1hem9uLUVDMl82NCI+JiN4YTsgICAgICAgIDxnIGZpbGw9IiNFRDcxMDAiIGlkPSJJY29uLUFyY2hpdGVjdHVyZS1CRy82NC9Db21wdXRlIj4mI3hhOyAgICAgICAgICAgIDxyZWN0IGhlaWdodD0iODAiIHdpZHRoPSI4MCIgeT0iMCIgeD0iMCIgaWQ9IlJlY3RhbmdsZSIvPiYjeGE7ICAgICAgICA8L2c+JiN4YTsgICAgICAgIDxwYXRoIGZpbGw9IiNGRkZGRkYiIGlkPSJBbWF6b24tRUMyX0ljb25fNjRfU3F1aWQiIGQ9Ik0yNyw1MyBMNTIsNTMgTDUyLDI4IEwyNywyOCBMMjcsNTMgWiBNNTQsMjggTDU4LDI4IEw1OCwzMCBMNTQsMzAgTDU0LDM0IEw1OCwzNCBMNTgsMzYgTDU0LDM2IEw1NCwzOSBMNTgsMzkgTDU4LDQxIEw1NCw0MSBMNTQsNDUgTDU4LDQ1IEw1OCw0NyBMNTQsNDcgTDU0LDUxIEw1OCw1MSBMNTgsNTMgTDU0LDUzIEw1NCw1My4xMzYgQzU0LDU0LjE2NCA1My4xNjQsNTUgNTIuMTM2LDU1IEw1Miw1NSBMNTIsNTkgTDUwLDU5IEw1MCw1NSBMNDYsNTUgTDQ2LDU5IEw0NCw1OSBMNDQsNTUgTDQxLDU1IEw0MSw1OSBMMzksNTkgTDM5LDU1IEwzNSw1NSBMMzUsNTkgTDMzLDU5IEwzMyw1NSBMMjksNTUgTDI5LDU5IEwyNyw1OSBMMjcsNTUgTDI2Ljg2NCw1NSBDMjUuODM2LDU1IDI1LDU0LjE2NCAyNSw1My4xMzYgTDI1LDUzIEwyMiw1MyBMMjIsNTEgTDI1LDUxIEwyNSw0NyBMMjIsNDcgTDIyLDQ1IEwyNSw0NSBMMjUsNDEgTDIyLDQxIEwyMiwzOSBMMjUsMzkgTDI1LDM2IEwyMiwzNiBMMjIsMzQgTDI1LDM0IEwyNSwzMCBMMjIsMzAgTDIyLDI4IEwyNSwyOCBMMjUsMjcuODY0IEMyNSwyNi44MzYgMjUuODM2LDI2IDI2Ljg2NCwyNiBMMjcsMjYgTDI3LDIyIEwyOSwyMiBMMjksMjYgTDMzLDI2IEwzMywyMiBMMzUsMjIgTDM1LDI2IEwzOSwyNiBMMzksMjIgTDQxLDIyIEw0MSwyNiBMNDQsMjYgTDQ0LDIyIEw0NiwyMiBMNDYsMjYgTDUwLDI2IEw1MCwyMiBMNTIsMjIgTDUyLDI2IEw1Mi4xMzYsMjYgQzUzLjE2NCwyNiA1NCwyNi44MzYgNTQsMjcuODY0IEw1NCwyOCBaIE00MSw2NS44NzYgQzQxLDY1Ljk0NCA0MC45NDQsNjYgNDAuODc2LDY2IEwxNC4xMjQsNjYgQzE0LjA1Niw2NiAxNCw2NS45NDQgMTQsNjUuODc2IEwxNCwzOS4xMjQgQzE0LDM5LjA1NiAxNC4wNTYsMzkgMTQuMTI0LDM5IEwyMCwzOSBMMjAsMzcgTDE0LjEyNCwzNyBDMTIuOTUzLDM3IDEyLDM3Ljk1MyAxMiwzOS4xMjQgTDEyLDY1Ljg3NiBDMTIsNjcuMDQ3IDEyLjk1Myw2OCAxNC4xMjQsNjggTDQwLjg3Niw2OCBDNDIuMDQ3LDY4IDQzLDY3LjA0NyA0Myw2NS44NzYgTDQzLDYxIEw0MSw2MSBMNDEsNjUuODc2IFogTTY4LDE0LjEyNCBMNjgsNDAuODc2IEM2OCw0Mi4wNDcgNjcuMDQ3LDQzIDY1Ljg3Niw0MyBMNjAsNDMgTDYwLDQxIEw2NS44NzYsNDEgQzY1Ljk0NCw0MSA2Niw0MC45NDQgNjYsNDAuODc2IEw2NiwxNC4xMjQgQzY2LDE0LjA1NiA2NS45NDQsMTQgNjUuODc2LDE0IEwzOS4xMjQsMTQgQzM5LjA1NiwxNCAzOSwxNC4wNTYgMzksMTQuMTI0IEwzOSwyMCBMMzcsMjAgTDM3LDE0LjEyNCBDMzcsMTIuOTUzIDM3Ljk1MywxMiAzOS4xMjQsMTIgTDY1Ljg3NiwxMiBDNjcuMDQ3LDEyIDY4LDEyLjk1MyA2OCwxNC4xMjQgTDY4LDE0LjEyNCBaIi8+JiN4YTsgICAgPC9nPiYjeGE7PC9zdmc+;strokeColor=#000000;fontColor=#000000;" parent="8" vertex="1">
                    <mxGeometry x="256" y="76" width="80" height="80" as="geometry"/>
                </mxCell>
                <mxCell id="24" style="html=1;entryX=0.495;entryY=0.989;entryDx=0;entryDy=0;entryPerimeter=0;fillColor=#000000;strokeWidth=1;strokeColor=#000000;edgeStyle=orthogonalEdgeStyle;startArrow=classic;startFill=1;" edge="1" parent="8" source="gnrHQUhq9rvM71JO_lEj-3" target="20">
                    <mxGeometry relative="1" as="geometry"/>
                </mxCell>
                <mxCell id="gnrHQUhq9rvM71JO_lEj-3" value="" style="shape=image;verticalLabelPosition=bottom;labelBackgroundColor=default;verticalAlign=top;aspect=fixed;imageAspect=0;image=data:image/svg+xml,PHN2ZyB4bWxuczp4bGluaz0iaHR0cDovL3d3dy53My5vcmcvMTk5OS94bGluayIgeG1sbnM9Imh0dHA6Ly93d3cudzMub3JnLzIwMDAvc3ZnIiB2ZXJzaW9uPSIxLjEiIHZpZXdCb3g9IjAgMCA4MCA4MCIgaGVpZ2h0PSI4MHB4IiB3aWR0aD0iODBweCI+JiN4YTsgICAgPHRpdGxlPkljb24tQXJjaGl0ZWN0dXJlLzY0L0FyY2hfQW1hem9uLUVDMl82NDwvdGl0bGU+JiN4YTsgICAgPGcgZmlsbC1ydWxlPSJldmVub2RkIiBmaWxsPSJub25lIiBzdHJva2Utd2lkdGg9IjEiIHN0cm9rZT0ibm9uZSIgaWQ9Ikljb24tQXJjaGl0ZWN0dXJlLzY0L0FyY2hfQW1hem9uLUVDMl82NCI+JiN4YTsgICAgICAgIDxnIGZpbGw9IiNFRDcxMDAiIGlkPSJJY29uLUFyY2hpdGVjdHVyZS1CRy82NC9Db21wdXRlIj4mI3hhOyAgICAgICAgICAgIDxyZWN0IGhlaWdodD0iODAiIHdpZHRoPSI4MCIgeT0iMCIgeD0iMCIgaWQ9IlJlY3RhbmdsZSIvPiYjeGE7ICAgICAgICA8L2c+JiN4YTsgICAgICAgIDxwYXRoIGZpbGw9IiNGRkZGRkYiIGlkPSJBbWF6b24tRUMyX0ljb25fNjRfU3F1aWQiIGQ9Ik0yNyw1MyBMNTIsNTMgTDUyLDI4IEwyNywyOCBMMjcsNTMgWiBNNTQsMjggTDU4LDI4IEw1OCwzMCBMNTQsMzAgTDU0LDM0IEw1OCwzNCBMNTgsMzYgTDU0LDM2IEw1NCwzOSBMNTgsMzkgTDU4LDQxIEw1NCw0MSBMNTQsNDUgTDU4LDQ1IEw1OCw0NyBMNTQsNDcgTDU0LDUxIEw1OCw1MSBMNTgsNTMgTDU0LDUzIEw1NCw1My4xMzYgQzU0LDU0LjE2NCA1My4xNjQsNTUgNTIuMTM2LDU1IEw1Miw1NSBMNTIsNTkgTDUwLDU5IEw1MCw1NSBMNDYsNTUgTDQ2LDU5IEw0NCw1OSBMNDQsNTUgTDQxLDU1IEw0MSw1OSBMMzksNTkgTDM5LDU1IEwzNSw1NSBMMzUsNTkgTDMzLDU5IEwzMyw1NSBMMjksNTUgTDI5LDU5IEwyNyw1OSBMMjcsNTUgTDI2Ljg2NCw1NSBDMjUuODM2LDU1IDI1LDU0LjE2NCAyNSw1My4xMzYgTDI1LDUzIEwyMiw1MyBMMjIsNTEgTDI1LDUxIEwyNSw0NyBMMjIsNDcgTDIyLDQ1IEwyNSw0NSBMMjUsNDEgTDIyLDQxIEwyMiwzOSBMMjUsMzkgTDI1LDM2IEwyMiwzNiBMMjIsMzQgTDI1LDM0IEwyNSwzMCBMMjIsMzAgTDIyLDI4IEwyNSwyOCBMMjUsMjcuODY0IEMyNSwyNi44MzYgMjUuODM2LDI2IDI2Ljg2NCwyNiBMMjcsMjYgTDI3LDIyIEwyOSwyMiBMMjksMjYgTDMzLDI2IEwzMywyMiBMMzUsMjIgTDM1LDI2IEwzOSwyNiBMMzksMjIgTDQxLDIyIEw0MSwyNiBMNDQsMjYgTDQ0LDIyIEw0NiwyMiBMNDYsMjYgTDUwLDI2IEw1MCwyMiBMNTIsMjIgTDUyLDI2IEw1Mi4xMzYsMjYgQzUzLjE2NCwyNiA1NCwyNi44MzYgNTQsMjcuODY0IEw1NCwyOCBaIE00MSw2NS44NzYgQzQxLDY1Ljk0NCA0MC45NDQsNjYgNDAuODc2LDY2IEwxNC4xMjQsNjYgQzE0LjA1Niw2NiAxNCw2NS45NDQgMTQsNjUuODc2IEwxNCwzOS4xMjQgQzE0LDM5LjA1NiAxNC4wNTYsMzkgMTQuMTI0LDM5IEwyMCwzOSBMMjAsMzcgTDE0LjEyNCwzNyBDMTIuOTUzLDM3IDEyLDM3Ljk1MyAxMiwzOS4xMjQgTDEyLDY1Ljg3NiBDMTIsNjcuMDQ3IDEyLjk1Myw2OCAxNC4xMjQsNjggTDQwLjg3Niw2OCBDNDIuMDQ3LDY4IDQzLDY3LjA0NyA0Myw2NS44NzYgTDQzLDYxIEw0MSw2MSBMNDEsNjUuODc2IFogTTY4LDE0LjEyNCBMNjgsNDAuODc2IEM2OCw0Mi4wNDcgNjcuMDQ3LDQzIDY1Ljg3Niw0MyBMNjAsNDMgTDYwLDQxIEw2NS44NzYsNDEgQzY1Ljk0NCw0MSA2Niw0MC45NDQgNjYsNDAuODc2IEw2NiwxNC4xMjQgQzY2LDE0LjA1NiA2NS45NDQsMTQgNjUuODc2LDE0IEwzOS4xMjQsMTQgQzM5LjA1NiwxNCAzOSwxNC4wNTYgMzksMTQuMTI0IEwzOSwyMCBMMzcsMjAgTDM3LDE0LjEyNCBDMzcsMTIuOTUzIDM3Ljk1MywxMiAzOS4xMjQsMTIgTDY1Ljg3NiwxMiBDNjcuMDQ3LDEyIDY4LDEyLjk1MyA2OCwxNC4xMjQgTDY4LDE0LjEyNCBaIi8+JiN4YTsgICAgPC9nPiYjeGE7PC9zdmc+;strokeColor=#000000;fontColor=#000000;" parent="8" vertex="1">
                    <mxGeometry x="59" y="278" width="80" height="80" as="geometry"/>
                </mxCell>
                <mxCell id="gnrHQUhq9rvM71JO_lEj-4" value="" style="shape=image;verticalLabelPosition=bottom;labelBackgroundColor=default;verticalAlign=top;aspect=fixed;imageAspect=0;image=data:image/svg+xml,PHN2ZyB4bWxuczp4bGluaz0iaHR0cDovL3d3dy53My5vcmcvMTk5OS94bGluayIgeG1sbnM9Imh0dHA6Ly93d3cudzMub3JnLzIwMDAvc3ZnIiB2ZXJzaW9uPSIxLjEiIHZpZXdCb3g9IjAgMCA4MCA4MCIgaGVpZ2h0PSI4MHB4IiB3aWR0aD0iODBweCI+JiN4YTsgICAgPHRpdGxlPkljb24tQXJjaGl0ZWN0dXJlLzY0L0FyY2hfQW1hem9uLUVDMl82NDwvdGl0bGU+JiN4YTsgICAgPGcgZmlsbC1ydWxlPSJldmVub2RkIiBmaWxsPSJub25lIiBzdHJva2Utd2lkdGg9IjEiIHN0cm9rZT0ibm9uZSIgaWQ9Ikljb24tQXJjaGl0ZWN0dXJlLzY0L0FyY2hfQW1hem9uLUVDMl82NCI+JiN4YTsgICAgICAgIDxnIGZpbGw9IiNFRDcxMDAiIGlkPSJJY29uLUFyY2hpdGVjdHVyZS1CRy82NC9Db21wdXRlIj4mI3hhOyAgICAgICAgICAgIDxyZWN0IGhlaWdodD0iODAiIHdpZHRoPSI4MCIgeT0iMCIgeD0iMCIgaWQ9IlJlY3RhbmdsZSIvPiYjeGE7ICAgICAgICA8L2c+JiN4YTsgICAgICAgIDxwYXRoIGZpbGw9IiNGRkZGRkYiIGlkPSJBbWF6b24tRUMyX0ljb25fNjRfU3F1aWQiIGQ9Ik0yNyw1MyBMNTIsNTMgTDUyLDI4IEwyNywyOCBMMjcsNTMgWiBNNTQsMjggTDU4LDI4IEw1OCwzMCBMNTQsMzAgTDU0LDM0IEw1OCwzNCBMNTgsMzYgTDU0LDM2IEw1NCwzOSBMNTgsMzkgTDU4LDQxIEw1NCw0MSBMNTQsNDUgTDU4LDQ1IEw1OCw0NyBMNTQsNDcgTDU0LDUxIEw1OCw1MSBMNTgsNTMgTDU0LDUzIEw1NCw1My4xMzYgQzU0LDU0LjE2NCA1My4xNjQsNTUgNTIuMTM2LDU1IEw1Miw1NSBMNTIsNTkgTDUwLDU5IEw1MCw1NSBMNDYsNTUgTDQ2LDU5IEw0NCw1OSBMNDQsNTUgTDQxLDU1IEw0MSw1OSBMMzksNTkgTDM5LDU1IEwzNSw1NSBMMzUsNTkgTDMzLDU5IEwzMyw1NSBMMjksNTUgTDI5LDU5IEwyNyw1OSBMMjcsNTUgTDI2Ljg2NCw1NSBDMjUuODM2LDU1IDI1LDU0LjE2NCAyNSw1My4xMzYgTDI1LDUzIEwyMiw1MyBMMjIsNTEgTDI1LDUxIEwyNSw0NyBMMjIsNDcgTDIyLDQ1IEwyNSw0NSBMMjUsNDEgTDIyLDQxIEwyMiwzOSBMMjUsMzkgTDI1LDM2IEwyMiwzNiBMMjIsMzQgTDI1LDM0IEwyNSwzMCBMMjIsMzAgTDIyLDI4IEwyNSwyOCBMMjUsMjcuODY0IEMyNSwyNi44MzYgMjUuODM2LDI2IDI2Ljg2NCwyNiBMMjcsMjYgTDI3LDIyIEwyOSwyMiBMMjksMjYgTDMzLDI2IEwzMywyMiBMMzUsMjIgTDM1LDI2IEwzOSwyNiBMMzksMjIgTDQxLDIyIEw0MSwyNiBMNDQsMjYgTDQ0LDIyIEw0NiwyMiBMNDYsMjYgTDUwLDI2IEw1MCwyMiBMNTIsMjIgTDUyLDI2IEw1Mi4xMzYsMjYgQzUzLjE2NCwyNiA1NCwyNi44MzYgNTQsMjcuODY0IEw1NCwyOCBaIE00MSw2NS44NzYgQzQxLDY1Ljk0NCA0MC45NDQsNjYgNDAuODc2LDY2IEwxNC4xMjQsNjYgQzE0LjA1Niw2NiAxNCw2NS45NDQgMTQsNjUuODc2IEwxNCwzOS4xMjQgQzE0LDM5LjA1NiAxNC4wNTYsMzkgMTQuMTI0LDM5IEwyMCwzOSBMMjAsMzcgTDE0LjEyNCwzNyBDMTIuOTUzLDM3IDEyLDM3Ljk1MyAxMiwzOS4xMjQgTDEyLDY1Ljg3NiBDMTIsNjcuMDQ3IDEyLjk1Myw2OCAxNC4xMjQsNjggTDQwLjg3Niw2OCBDNDIuMDQ3LDY4IDQzLDY3LjA0NyA0Myw2NS44NzYgTDQzLDYxIEw0MSw2MSBMNDEsNjUuODc2IFogTTY4LDE0LjEyNCBMNjgsNDAuODc2IEM2OCw0Mi4wNDcgNjcuMDQ3LDQzIDY1Ljg3Niw0MyBMNjAsNDMgTDYwLDQxIEw2NS44NzYsNDEgQzY1Ljk0NCw0MSA2Niw0MC45NDQgNjYsNDAuODc2IEw2NiwxNC4xMjQgQzY2LDE0LjA1NiA2NS45NDQsMTQgNjUuODc2LDE0IEwzOS4xMjQsMTQgQzM5LjA1NiwxNCAzOSwxNC4wNTYgMzksMTQuMTI0IEwzOSwyMCBMMzcsMjAgTDM3LDE0LjEyNCBDMzcsMTIuOTUzIDM3Ljk1MywxMiAzOS4xMjQsMTIgTDY1Ljg3NiwxMiBDNjcuMDQ3LDEyIDY4LDEyLjk1MyA2OCwxNC4xMjQgTDY4LDE0LjEyNCBaIi8+JiN4YTsgICAgPC9nPiYjeGE7PC9zdmc+;strokeColor=#000000;fontColor=#000000;" parent="8" vertex="1">
                    <mxGeometry x="256" y="278" width="80" height="80" as="geometry"/>
                </mxCell>
                <mxCell id="62" style="edgeStyle=none;html=1;strokeColor=#000000;strokeWidth=1;startArrow=none;startFill=0;fillColor=#000000;entryX=1.003;entryY=0.108;entryDx=0;entryDy=0;entryPerimeter=0;" edge="1" parent="8" source="ltZXNkRYrEJbg4pB-ccx-1" target="WwlxKhp9ZZO1Id2gayt7-15">
                    <mxGeometry relative="1" as="geometry">
                        <mxPoint x="379" y="74" as="targetPoint"/>
                    </mxGeometry>
                </mxCell>
                <mxCell id="ltZXNkRYrEJbg4pB-ccx-1" value="" style="shape=image;verticalLabelPosition=bottom;labelBackgroundColor=default;verticalAlign=top;aspect=fixed;imageAspect=0;image=data:image/svg+xml,PHN2ZyB4bWxuczp4bGluaz0iaHR0cDovL3d3dy53My5vcmcvMTk5OS94bGluayIgeG1sbnM9Imh0dHA6Ly93d3cudzMub3JnLzIwMDAvc3ZnIiB2ZXJzaW9uPSIxLjEiIHZpZXdCb3g9IjAgMCA4MCA4MCIgaGVpZ2h0PSI4MHB4IiB3aWR0aD0iODBweCI+JiN4YTsgICAgPHRpdGxlPkljb24tQXJjaGl0ZWN0dXJlLzY0L0FyY2hfQW1hem9uLUVDMl82NDwvdGl0bGU+JiN4YTsgICAgPGcgZmlsbC1ydWxlPSJldmVub2RkIiBmaWxsPSJub25lIiBzdHJva2Utd2lkdGg9IjEiIHN0cm9rZT0ibm9uZSIgaWQ9Ikljb24tQXJjaGl0ZWN0dXJlLzY0L0FyY2hfQW1hem9uLUVDMl82NCI+JiN4YTsgICAgICAgIDxnIGZpbGw9IiNFRDcxMDAiIGlkPSJJY29uLUFyY2hpdGVjdHVyZS1CRy82NC9Db21wdXRlIj4mI3hhOyAgICAgICAgICAgIDxyZWN0IGhlaWdodD0iODAiIHdpZHRoPSI4MCIgeT0iMCIgeD0iMCIgaWQ9IlJlY3RhbmdsZSIvPiYjeGE7ICAgICAgICA8L2c+JiN4YTsgICAgICAgIDxwYXRoIGZpbGw9IiNGRkZGRkYiIGlkPSJBbWF6b24tRUMyX0ljb25fNjRfU3F1aWQiIGQ9Ik0yNyw1MyBMNTIsNTMgTDUyLDI4IEwyNywyOCBMMjcsNTMgWiBNNTQsMjggTDU4LDI4IEw1OCwzMCBMNTQsMzAgTDU0LDM0IEw1OCwzNCBMNTgsMzYgTDU0LDM2IEw1NCwzOSBMNTgsMzkgTDU4LDQxIEw1NCw0MSBMNTQsNDUgTDU4LDQ1IEw1OCw0NyBMNTQsNDcgTDU0LDUxIEw1OCw1MSBMNTgsNTMgTDU0LDUzIEw1NCw1My4xMzYgQzU0LDU0LjE2NCA1My4xNjQsNTUgNTIuMTM2LDU1IEw1Miw1NSBMNTIsNTkgTDUwLDU5IEw1MCw1NSBMNDYsNTUgTDQ2LDU5IEw0NCw1OSBMNDQsNTUgTDQxLDU1IEw0MSw1OSBMMzksNTkgTDM5LDU1IEwzNSw1NSBMMzUsNTkgTDMzLDU5IEwzMyw1NSBMMjksNTUgTDI5LDU5IEwyNyw1OSBMMjcsNTUgTDI2Ljg2NCw1NSBDMjUuODM2LDU1IDI1LDU0LjE2NCAyNSw1My4xMzYgTDI1LDUzIEwyMiw1MyBMMjIsNTEgTDI1LDUxIEwyNSw0NyBMMjIsNDcgTDIyLDQ1IEwyNSw0NSBMMjUsNDEgTDIyLDQxIEwyMiwzOSBMMjUsMzkgTDI1LDM2IEwyMiwzNiBMMjIsMzQgTDI1LDM0IEwyNSwzMCBMMjIsMzAgTDIyLDI4IEwyNSwyOCBMMjUsMjcuODY0IEMyNSwyNi44MzYgMjUuODM2LDI2IDI2Ljg2NCwyNiBMMjcsMjYgTDI3LDIyIEwyOSwyMiBMMjksMjYgTDMzLDI2IEwzMywyMiBMMzUsMjIgTDM1LDI2IEwzOSwyNiBMMzksMjIgTDQxLDIyIEw0MSwyNiBMNDQsMjYgTDQ0LDIyIEw0NiwyMiBMNDYsMjYgTDUwLDI2IEw1MCwyMiBMNTIsMjIgTDUyLDI2IEw1Mi4xMzYsMjYgQzUzLjE2NCwyNiA1NCwyNi44MzYgNTQsMjcuODY0IEw1NCwyOCBaIE00MSw2NS44NzYgQzQxLDY1Ljk0NCA0MC45NDQsNjYgNDAuODc2LDY2IEwxNC4xMjQsNjYgQzE0LjA1Niw2NiAxNCw2NS45NDQgMTQsNjUuODc2IEwxNCwzOS4xMjQgQzE0LDM5LjA1NiAxNC4wNTYsMzkgMTQuMTI0LDM5IEwyMCwzOSBMMjAsMzcgTDE0LjEyNCwzNyBDMTIuOTUzLDM3IDEyLDM3Ljk1MyAxMiwzOS4xMjQgTDEyLDY1Ljg3NiBDMTIsNjcuMDQ3IDEyLjk1Myw2OCAxNC4xMjQsNjggTDQwLjg3Niw2OCBDNDIuMDQ3LDY4IDQzLDY3LjA0NyA0Myw2NS44NzYgTDQzLDYxIEw0MSw2MSBMNDEsNjUuODc2IFogTTY4LDE0LjEyNCBMNjgsNDAuODc2IEM2OCw0Mi4wNDcgNjcuMDQ3LDQzIDY1Ljg3Niw0MyBMNjAsNDMgTDYwLDQxIEw2NS44NzYsNDEgQzY1Ljk0NCw0MSA2Niw0MC45NDQgNjYsNDAuODc2IEw2NiwxNC4xMjQgQzY2LDE0LjA1NiA2NS45NDQsMTQgNjUuODc2LDE0IEwzOS4xMjQsMTQgQzM5LjA1NiwxNCAzOSwxNC4wNTYgMzksMTQuMTI0IEwzOSwyMCBMMzcsMjAgTDM3LDE0LjEyNCBDMzcsMTIuOTUzIDM3Ljk1MywxMiAzOS4xMjQsMTIgTDY1Ljg3NiwxMiBDNjcuMDQ3LDEyIDY4LDEyLjk1MyA2OCwxNC4xMjQgTDY4LDE0LjEyNCBaIi8+JiN4YTsgICAgPC9nPiYjeGE7PC9zdmc+;strokeColor=#000000;fontColor=#000000;" parent="8" vertex="1">
                    <mxGeometry x="414" y="34" width="80" height="80" as="geometry"/>
                </mxCell>
                <mxCell id="ltZXNkRYrEJbg4pB-ccx-2" value="Amazon EC2&lt;br&gt;(Trustee 1)" style="text;html=1;align=center;verticalAlign=middle;resizable=0;points=[];autosize=1;strokeColor=none;fillColor=none;fontColor=#000000;" parent="8" vertex="1">
                    <mxGeometry x="409" y="114" width="90" height="40" as="geometry"/>
                </mxCell>
                <mxCell id="20" value="Amazon EC2&lt;br&gt;(Steward 1)" style="text;html=1;align=center;verticalAlign=middle;resizable=0;points=[];autosize=1;strokeColor=none;fillColor=none;fontColor=#000000;" vertex="1" parent="8">
                    <mxGeometry x="54" y="156" width="90" height="40" as="geometry"/>
                </mxCell>
                <mxCell id="25" style="html=1;entryX=1;entryY=0.5;entryDx=0;entryDy=0;fillColor=#000000;strokeWidth=1;strokeColor=#000000;edgeStyle=orthogonalEdgeStyle;startArrow=classic;startFill=1;exitX=0;exitY=0.5;exitDx=0;exitDy=0;" edge="1" parent="8" source="gnrHQUhq9rvM71JO_lEj-2" target="gnrHQUhq9rvM71JO_lEj-1">
                    <mxGeometry relative="1" as="geometry">
                        <mxPoint x="109" y="288" as="sourcePoint"/>
                        <mxPoint x="109" y="205.55999999999995" as="targetPoint"/>
                    </mxGeometry>
                </mxCell>
                <mxCell id="26" value="Amazon EC2&lt;br&gt;(Steward 2)" style="text;html=1;align=center;verticalAlign=middle;resizable=0;points=[];autosize=1;strokeColor=none;fillColor=none;fontColor=#000000;" vertex="1" parent="8">
                    <mxGeometry x="251" y="156" width="90" height="40" as="geometry"/>
                </mxCell>
                <mxCell id="27" value="Amazon EC2&lt;br&gt;(Steward 3)" style="text;html=1;align=center;verticalAlign=middle;resizable=0;points=[];autosize=1;strokeColor=none;fillColor=none;fontColor=#000000;" vertex="1" parent="8">
                    <mxGeometry x="54" y="358" width="90" height="40" as="geometry"/>
                </mxCell>
                <mxCell id="28" value="Amazon EC2&lt;br&gt;(Steward 4)" style="text;html=1;align=center;verticalAlign=middle;resizable=0;points=[];autosize=1;strokeColor=none;fillColor=none;fontColor=#000000;" vertex="1" parent="8">
                    <mxGeometry x="251" y="358" width="90" height="40" as="geometry"/>
                </mxCell>
                <mxCell id="29" style="html=1;entryX=0;entryY=0.5;entryDx=0;entryDy=0;fillColor=#000000;strokeWidth=1;strokeColor=#000000;edgeStyle=orthogonalEdgeStyle;startArrow=classic;startFill=1;exitX=1;exitY=0.5;exitDx=0;exitDy=0;" edge="1" parent="8" source="gnrHQUhq9rvM71JO_lEj-3" target="gnrHQUhq9rvM71JO_lEj-4">
                    <mxGeometry relative="1" as="geometry">
                        <mxPoint x="109" y="288" as="sourcePoint"/>
                        <mxPoint x="109" y="205.55999999999995" as="targetPoint"/>
                    </mxGeometry>
                </mxCell>
                <mxCell id="47" style="html=1;entryX=0.5;entryY=0;entryDx=0;entryDy=0;fillColor=#000000;strokeWidth=1;strokeColor=#000000;edgeStyle=orthogonalEdgeStyle;startArrow=classic;startFill=1;exitX=0.495;exitY=0.989;exitDx=0;exitDy=0;exitPerimeter=0;" edge="1" parent="8" source="26" target="gnrHQUhq9rvM71JO_lEj-4">
                    <mxGeometry relative="1" as="geometry">
                        <mxPoint x="296" y="178" as="sourcePoint"/>
                        <mxPoint x="266" y="328" as="targetPoint"/>
                    </mxGeometry>
                </mxCell>
                <mxCell id="48" style="html=1;fillColor=#000000;strokeWidth=1;strokeColor=#000000;startArrow=classic;startFill=1;exitX=0;exitY=0;exitDx=0;exitDy=0;" edge="1" parent="8" source="gnrHQUhq9rvM71JO_lEj-4" target="gnrHQUhq9rvM71JO_lEj-1">
                    <mxGeometry relative="1" as="geometry">
                        <mxPoint x="266" y="126" as="sourcePoint"/>
                        <mxPoint x="169" y="168" as="targetPoint"/>
                    </mxGeometry>
                </mxCell>
                <mxCell id="49" style="html=1;entryX=0;entryY=1;entryDx=0;entryDy=0;fillColor=#000000;strokeWidth=1;strokeColor=#000000;startArrow=classic;startFill=1;exitX=1;exitY=0;exitDx=0;exitDy=0;" edge="1" parent="8" source="gnrHQUhq9rvM71JO_lEj-3" target="gnrHQUhq9rvM71JO_lEj-2">
                    <mxGeometry relative="1" as="geometry">
                        <mxPoint x="266" y="288" as="sourcePoint"/>
                        <mxPoint x="149.58999999999992" y="163.55999999999995" as="targetPoint"/>
                    </mxGeometry>
                </mxCell>
                <mxCell id="64" style="edgeStyle=none;html=1;entryX=1.002;entryY=0.829;entryDx=0;entryDy=0;entryPerimeter=0;strokeColor=#000000;strokeWidth=1;startArrow=none;startFill=0;fillColor=#000000;" edge="1" parent="8" source="52" target="WwlxKhp9ZZO1Id2gayt7-15">
                    <mxGeometry relative="1" as="geometry"/>
                </mxCell>
                <mxCell id="52" value="" style="shape=image;verticalLabelPosition=bottom;labelBackgroundColor=default;verticalAlign=top;aspect=fixed;imageAspect=0;image=data:image/svg+xml,PHN2ZyB4bWxuczp4bGluaz0iaHR0cDovL3d3dy53My5vcmcvMTk5OS94bGluayIgeG1sbnM9Imh0dHA6Ly93d3cudzMub3JnLzIwMDAvc3ZnIiB2ZXJzaW9uPSIxLjEiIHZpZXdCb3g9IjAgMCA4MCA4MCIgaGVpZ2h0PSI4MHB4IiB3aWR0aD0iODBweCI+JiN4YTsgICAgPHRpdGxlPkljb24tQXJjaGl0ZWN0dXJlLzY0L0FyY2hfQW1hem9uLUVDMl82NDwvdGl0bGU+JiN4YTsgICAgPGcgZmlsbC1ydWxlPSJldmVub2RkIiBmaWxsPSJub25lIiBzdHJva2Utd2lkdGg9IjEiIHN0cm9rZT0ibm9uZSIgaWQ9Ikljb24tQXJjaGl0ZWN0dXJlLzY0L0FyY2hfQW1hem9uLUVDMl82NCI+JiN4YTsgICAgICAgIDxnIGZpbGw9IiNFRDcxMDAiIGlkPSJJY29uLUFyY2hpdGVjdHVyZS1CRy82NC9Db21wdXRlIj4mI3hhOyAgICAgICAgICAgIDxyZWN0IGhlaWdodD0iODAiIHdpZHRoPSI4MCIgeT0iMCIgeD0iMCIgaWQ9IlJlY3RhbmdsZSIvPiYjeGE7ICAgICAgICA8L2c+JiN4YTsgICAgICAgIDxwYXRoIGZpbGw9IiNGRkZGRkYiIGlkPSJBbWF6b24tRUMyX0ljb25fNjRfU3F1aWQiIGQ9Ik0yNyw1MyBMNTIsNTMgTDUyLDI4IEwyNywyOCBMMjcsNTMgWiBNNTQsMjggTDU4LDI4IEw1OCwzMCBMNTQsMzAgTDU0LDM0IEw1OCwzNCBMNTgsMzYgTDU0LDM2IEw1NCwzOSBMNTgsMzkgTDU4LDQxIEw1NCw0MSBMNTQsNDUgTDU4LDQ1IEw1OCw0NyBMNTQsNDcgTDU0LDUxIEw1OCw1MSBMNTgsNTMgTDU0LDUzIEw1NCw1My4xMzYgQzU0LDU0LjE2NCA1My4xNjQsNTUgNTIuMTM2LDU1IEw1Miw1NSBMNTIsNTkgTDUwLDU5IEw1MCw1NSBMNDYsNTUgTDQ2LDU5IEw0NCw1OSBMNDQsNTUgTDQxLDU1IEw0MSw1OSBMMzksNTkgTDM5LDU1IEwzNSw1NSBMMzUsNTkgTDMzLDU5IEwzMyw1NSBMMjksNTUgTDI5LDU5IEwyNyw1OSBMMjcsNTUgTDI2Ljg2NCw1NSBDMjUuODM2LDU1IDI1LDU0LjE2NCAyNSw1My4xMzYgTDI1LDUzIEwyMiw1MyBMMjIsNTEgTDI1LDUxIEwyNSw0NyBMMjIsNDcgTDIyLDQ1IEwyNSw0NSBMMjUsNDEgTDIyLDQxIEwyMiwzOSBMMjUsMzkgTDI1LDM2IEwyMiwzNiBMMjIsMzQgTDI1LDM0IEwyNSwzMCBMMjIsMzAgTDIyLDI4IEwyNSwyOCBMMjUsMjcuODY0IEMyNSwyNi44MzYgMjUuODM2LDI2IDI2Ljg2NCwyNiBMMjcsMjYgTDI3LDIyIEwyOSwyMiBMMjksMjYgTDMzLDI2IEwzMywyMiBMMzUsMjIgTDM1LDI2IEwzOSwyNiBMMzksMjIgTDQxLDIyIEw0MSwyNiBMNDQsMjYgTDQ0LDIyIEw0NiwyMiBMNDYsMjYgTDUwLDI2IEw1MCwyMiBMNTIsMjIgTDUyLDI2IEw1Mi4xMzYsMjYgQzUzLjE2NCwyNiA1NCwyNi44MzYgNTQsMjcuODY0IEw1NCwyOCBaIE00MSw2NS44NzYgQzQxLDY1Ljk0NCA0MC45NDQsNjYgNDAuODc2LDY2IEwxNC4xMjQsNjYgQzE0LjA1Niw2NiAxNCw2NS45NDQgMTQsNjUuODc2IEwxNCwzOS4xMjQgQzE0LDM5LjA1NiAxNC4wNTYsMzkgMTQuMTI0LDM5IEwyMCwzOSBMMjAsMzcgTDE0LjEyNCwzNyBDMTIuOTUzLDM3IDEyLDM3Ljk1MyAxMiwzOS4xMjQgTDEyLDY1Ljg3NiBDMTIsNjcuMDQ3IDEyLjk1Myw2OCAxNC4xMjQsNjggTDQwLjg3Niw2OCBDNDIuMDQ3LDY4IDQzLDY3LjA0NyA0Myw2NS44NzYgTDQzLDYxIEw0MSw2MSBMNDEsNjUuODc2IFogTTY4LDE0LjEyNCBMNjgsNDAuODc2IEM2OCw0Mi4wNDcgNjcuMDQ3LDQzIDY1Ljg3Niw0MyBMNjAsNDMgTDYwLDQxIEw2NS44NzYsNDEgQzY1Ljk0NCw0MSA2Niw0MC45NDQgNjYsNDAuODc2IEw2NiwxNC4xMjQgQzY2LDE0LjA1NiA2NS45NDQsMTQgNjUuODc2LDE0IEwzOS4xMjQsMTQgQzM5LjA1NiwxNCAzOSwxNC4wNTYgMzksMTQuMTI0IEwzOSwyMCBMMzcsMjAgTDM3LDE0LjEyNCBDMzcsMTIuOTUzIDM3Ljk1MywxMiAzOS4xMjQsMTIgTDY1Ljg3NiwxMiBDNjcuMDQ3LDEyIDY4LDEyLjk1MyA2OCwxNC4xMjQgTDY4LDE0LjEyNCBaIi8+JiN4YTsgICAgPC9nPiYjeGE7PC9zdmc+;strokeColor=#000000;fontColor=#000000;" vertex="1" parent="8">
                    <mxGeometry x="414" y="300" width="80" height="80" as="geometry"/>
                </mxCell>
                <mxCell id="53" value="Amazon EC2&lt;br&gt;(Trustee 3)" style="text;html=1;align=center;verticalAlign=middle;resizable=0;points=[];autosize=1;strokeColor=none;fillColor=none;fontColor=#000000;" vertex="1" parent="8">
                    <mxGeometry x="409" y="380" width="90" height="40" as="geometry"/>
                </mxCell>
                <mxCell id="67" style="edgeStyle=none;html=1;strokeColor=#000000;strokeWidth=1;startArrow=none;startFill=0;fillColor=#000000;" edge="1" parent="1" source="10">
                    <mxGeometry relative="1" as="geometry">
                        <mxPoint x="70" y="275" as="targetPoint"/>
                    </mxGeometry>
                </mxCell>
                <mxCell id="10" value="" style="sketch=0;pointerEvents=1;shadow=0;dashed=0;html=1;strokeColor=none;fillColor=#505050;labelPosition=center;verticalLabelPosition=bottom;verticalAlign=top;outlineConnect=0;align=center;shape=mxgraph.office.users.user;" vertex="1" parent="1">
                    <mxGeometry x="-118" y="250" width="46" height="50" as="geometry"/>
                </mxCell>
                <mxCell id="17" value="&lt;font color=&quot;#000000&quot;&gt;Client&lt;/font&gt;" style="text;html=1;align=center;verticalAlign=middle;resizable=0;points=[];autosize=1;strokeColor=none;fillColor=none;" vertex="1" parent="1">
                    <mxGeometry x="-120" y="300" width="50" height="30" as="geometry"/>
                </mxCell>
                <mxCell id="63" style="edgeStyle=none;html=1;entryX=0.999;entryY=0.476;entryDx=0;entryDy=0;entryPerimeter=0;strokeColor=#000000;strokeWidth=1;startArrow=none;startFill=0;fillColor=#000000;" edge="1" parent="1" source="50" target="WwlxKhp9ZZO1Id2gayt7-15">
                    <mxGeometry relative="1" as="geometry"/>
                </mxCell>
                <mxCell id="50" value="" style="shape=image;verticalLabelPosition=bottom;labelBackgroundColor=default;verticalAlign=top;aspect=fixed;imageAspect=0;image=data:image/svg+xml,PHN2ZyB4bWxuczp4bGluaz0iaHR0cDovL3d3dy53My5vcmcvMTk5OS94bGluayIgeG1sbnM9Imh0dHA6Ly93d3cudzMub3JnLzIwMDAvc3ZnIiB2ZXJzaW9uPSIxLjEiIHZpZXdCb3g9IjAgMCA4MCA4MCIgaGVpZ2h0PSI4MHB4IiB3aWR0aD0iODBweCI+JiN4YTsgICAgPHRpdGxlPkljb24tQXJjaGl0ZWN0dXJlLzY0L0FyY2hfQW1hem9uLUVDMl82NDwvdGl0bGU+JiN4YTsgICAgPGcgZmlsbC1ydWxlPSJldmVub2RkIiBmaWxsPSJub25lIiBzdHJva2Utd2lkdGg9IjEiIHN0cm9rZT0ibm9uZSIgaWQ9Ikljb24tQXJjaGl0ZWN0dXJlLzY0L0FyY2hfQW1hem9uLUVDMl82NCI+JiN4YTsgICAgICAgIDxnIGZpbGw9IiNFRDcxMDAiIGlkPSJJY29uLUFyY2hpdGVjdHVyZS1CRy82NC9Db21wdXRlIj4mI3hhOyAgICAgICAgICAgIDxyZWN0IGhlaWdodD0iODAiIHdpZHRoPSI4MCIgeT0iMCIgeD0iMCIgaWQ9IlJlY3RhbmdsZSIvPiYjeGE7ICAgICAgICA8L2c+JiN4YTsgICAgICAgIDxwYXRoIGZpbGw9IiNGRkZGRkYiIGlkPSJBbWF6b24tRUMyX0ljb25fNjRfU3F1aWQiIGQ9Ik0yNyw1MyBMNTIsNTMgTDUyLDI4IEwyNywyOCBMMjcsNTMgWiBNNTQsMjggTDU4LDI4IEw1OCwzMCBMNTQsMzAgTDU0LDM0IEw1OCwzNCBMNTgsMzYgTDU0LDM2IEw1NCwzOSBMNTgsMzkgTDU4LDQxIEw1NCw0MSBMNTQsNDUgTDU4LDQ1IEw1OCw0NyBMNTQsNDcgTDU0LDUxIEw1OCw1MSBMNTgsNTMgTDU0LDUzIEw1NCw1My4xMzYgQzU0LDU0LjE2NCA1My4xNjQsNTUgNTIuMTM2LDU1IEw1Miw1NSBMNTIsNTkgTDUwLDU5IEw1MCw1NSBMNDYsNTUgTDQ2LDU5IEw0NCw1OSBMNDQsNTUgTDQxLDU1IEw0MSw1OSBMMzksNTkgTDM5LDU1IEwzNSw1NSBMMzUsNTkgTDMzLDU5IEwzMyw1NSBMMjksNTUgTDI5LDU5IEwyNyw1OSBMMjcsNTUgTDI2Ljg2NCw1NSBDMjUuODM2LDU1IDI1LDU0LjE2NCAyNSw1My4xMzYgTDI1LDUzIEwyMiw1MyBMMjIsNTEgTDI1LDUxIEwyNSw0NyBMMjIsNDcgTDIyLDQ1IEwyNSw0NSBMMjUsNDEgTDIyLDQxIEwyMiwzOSBMMjUsMzkgTDI1LDM2IEwyMiwzNiBMMjIsMzQgTDI1LDM0IEwyNSwzMCBMMjIsMzAgTDIyLDI4IEwyNSwyOCBMMjUsMjcuODY0IEMyNSwyNi44MzYgMjUuODM2LDI2IDI2Ljg2NCwyNiBMMjcsMjYgTDI3LDIyIEwyOSwyMiBMMjksMjYgTDMzLDI2IEwzMywyMiBMMzUsMjIgTDM1LDI2IEwzOSwyNiBMMzksMjIgTDQxLDIyIEw0MSwyNiBMNDQsMjYgTDQ0LDIyIEw0NiwyMiBMNDYsMjYgTDUwLDI2IEw1MCwyMiBMNTIsMjIgTDUyLDI2IEw1Mi4xMzYsMjYgQzUzLjE2NCwyNiA1NCwyNi44MzYgNTQsMjcuODY0IEw1NCwyOCBaIE00MSw2NS44NzYgQzQxLDY1Ljk0NCA0MC45NDQsNjYgNDAuODc2LDY2IEwxNC4xMjQsNjYgQzE0LjA1Niw2NiAxNCw2NS45NDQgMTQsNjUuODc2IEwxNCwzOS4xMjQgQzE0LDM5LjA1NiAxNC4wNTYsMzkgMTQuMTI0LDM5IEwyMCwzOSBMMjAsMzcgTDE0LjEyNCwzNyBDMTIuOTUzLDM3IDEyLDM3Ljk1MyAxMiwzOS4xMjQgTDEyLDY1Ljg3NiBDMTIsNjcuMDQ3IDEyLjk1Myw2OCAxNC4xMjQsNjggTDQwLjg3Niw2OCBDNDIuMDQ3LDY4IDQzLDY3LjA0NyA0Myw2NS44NzYgTDQzLDYxIEw0MSw2MSBMNDEsNjUuODc2IFogTTY4LDE0LjEyNCBMNjgsNDAuODc2IEM2OCw0Mi4wNDcgNjcuMDQ3LDQzIDY1Ljg3Niw0MyBMNjAsNDMgTDYwLDQxIEw2NS44NzYsNDEgQzY1Ljk0NCw0MSA2Niw0MC45NDQgNjYsNDAuODc2IEw2NiwxNC4xMjQgQzY2LDE0LjA1NiA2NS45NDQsMTQgNjUuODc2LDE0IEwzOS4xMjQsMTQgQzM5LjA1NiwxNCAzOSwxNC4wNTYgMzksMTQuMTI0IEwzOSwyMCBMMzcsMjAgTDM3LDE0LjEyNCBDMzcsMTIuOTUzIDM3Ljk1MywxMiAzOS4xMjQsMTIgTDY1Ljg3NiwxMiBDNjcuMDQ3LDEyIDY4LDEyLjk1MyA2OCwxNC4xMjQgTDY4LDE0LjEyNCBaIi8+JiN4YTsgICAgPC9nPiYjeGE7PC9zdmc+;strokeColor=#000000;fontColor=#000000;" vertex="1" parent="1">
                    <mxGeometry x="485" y="250" width="80" height="80" as="geometry"/>
                </mxCell>
                <mxCell id="51" value="Amazon EC2&lt;br&gt;(Trustee 2)" style="text;html=1;align=center;verticalAlign=middle;resizable=0;points=[];autosize=1;strokeColor=none;fillColor=none;fontColor=#000000;" vertex="1" parent="1">
                    <mxGeometry x="480" y="330" width="90" height="40" as="geometry"/>
                </mxCell>
            </root>
        </mxGraphModel>
    </diagram>
</mxfile>